<svg xmlns="http://www.w3.org/2000/svg" aria-hidden="true" class="svg-inline--fa fa-bullhorn fa-w-18" data-icon="bullhorn" data-prefix="fas" viewBox="0 0 576 512"><defs/><path fill="currentColor" d="M576 240c0-24-13-44-32-55V32c0-9-7-32-32-32-7 0-14 2-20 7l-85 68c-43 34-96 53-151 53H64c-35 0-64 29-64 64v96c0 35 29 64 64 64h34a243 243 0 0023 143c5 11 17 17 28 17h75c26 0 41-30 26-51a127 127 0 01-22-109h28c55 0 108 19 151 53l85 68a32 32 0 0020 7c25 0 32-23 32-32V295c19-11 32-31 32-55zm-96 141l-33-26c-54-43-122-67-191-67v-96c69 0 137-24 191-67l33-26v282z"/></svg>
