<svg xmlns="http://www.w3.org/2000/svg" viewBox="0 -256 1850 1850"><defs/><path fill="currentColor" d="M1694 684q-152-236-381-353 61 104 61 225 0 185-131 316-132 132-317 132T610 872Q478 741 478 556q0-121 61-225-229 117-381 353 133 205 334 326 200 122 434 122t435-122q200-121 333-326zM974 300q0-20-14-34t-34-14q-125 0-214 89-90 90-90 215 0 20 14 34t34 14q20 0 34-14t14-34q0-86 61-147t147-61q20 0 34-14t14-34zm848 384q0 34-20 69-140 230-376 368-237 139-500 139t-499-139Q190 982 50 753q-20-35-20-69t20-69q140-229 377-368 236-139 499-139t500 139q236 139 376 368 20 35 20 69z"/></svg>
