<svg xmlns="http://www.w3.org/2000/svg" aria-hidden="true" class="svg-inline--fa fa-solar-panel fa-w-20" data-icon="solar-panel" data-prefix="fas" viewBox="0 0 640 512"><defs/><path fill="currentColor" d="M432 448h-48v-32H256v32h-48c-9 0-16 7-16 16v32c0 9 7 16 16 16h224c9 0 16-7 16-16v-32c0-9-7-16-16-16zM585 27c-2-16-16-27-32-27H87C71 0 57 11 55 27L0 352c0 17 14 32 33 32h574c19 0 33-15 33-32L585 27zM260 64h120l10 96H250l10-96zm-75 256H71l19-112h106l-11 112zm16-160H98l17-96h96l-10 96zm33 160l11-112h150l11 112H234zM429 64h96l17 96H439l-10-96zm26 256l-11-112h106l19 112H455z"/></svg>
