<svg xmlns="http://www.w3.org/2000/svg" viewBox="0 0 128 128"><defs/><path d="M64 30.3a33.7 33.7 0 100 67.4 33.7 33.7 0 000-67.4zM56.8 24.2h14.5a2 2 0 001.9-2.7L65.9 1.8a2 2 0 00-3.8 0l-7.3 19.7a2 2 0 00.3 1.8c.4.6 1 1 1.7 1zM97.3 41a2 2 0 001.8.6 2 2 0 001.5-1.2l8.7-19a2 2 0 00-2.7-2.7l-19 8.7a2 2 0 00-.6 3.4L97.3 41zM126.2 62l-19.7-7.2a2 2 0 00-1.8.3 2 2 0 00-1 1.6l.1 14.5a2 2 0 002.8 2l19.6-7.3a2 2 0 001.3-2 2 2 0 00-1.3-1.8zM100.6 87.6a2 2 0 00-3.3-.6L87 97.3a2 2 0 00.6 3.3l19 8.7c.3.2.6.2.9.2a2 2 0 001.8-2.9l-8.7-19zM71.2 103.8H56.7a2 2 0 00-1.6.9 2 2 0 00-.3 1.8l7.3 19.7c.3.8 1 1.3 1.9 1.3s1.6-.5 2-1.3l7.2-19.7a2 2 0 00-2-2.7zM30.7 87a2 2 0 00-3.3.6l-8.7 19a2 2 0 00.4 2.3 2 2 0 002.3.4l19-8.7a2 2 0 00.6-3.3L30.7 87zM22.2 73.3a2 2 0 002-2V56.6a2 2 0 00-2.8-2L1.9 62.2a2 2 0 000 3.8l19.7 7.3h.7zM27.4 40.4a2 2 0 003.4.6L41 30.7a2 2 0 00-.6-3.3l-19-8.7a2 2 0 00-2.3.4 2 2 0 00-.4 2.3l8.8 19z"/></svg>
