<svg xmlns="http://www.w3.org/2000/svg" xmlns:xlink="http://www.w3.org/1999/xlink" viewBox="0 0 175.2 175.6"><defs/><defs><linearGradient id="c" x1="85.9" x2="86.5" y1="32.6" y2="137.1" gradientUnits="userSpaceOnUse" xlink:href="#a"/><linearGradient id="a"><stop offset="0" stop-color="#57d163"/><stop offset="1" stop-color="#23b33a"/></linearGradient><filter id="b" width="1.1" height="1.1" x="-.1" y="-.1" color-interpolation-filters="sRGB"><feGaussianBlur stdDeviation="3.5"/></filter></defs><path fill="#b3b3b3" d="M55 138l2 2c9 5 20 8 31 8a61 61 0 10-52-28l2 2-7 23zm-41 24l10-38a73 73 0 1164 37c-12 0-25-3-35-9zm0 0" filter="url(#b)"/><path fill="#fff" d="M13 161l10-38a73 73 0 1164 37c-12 0-24-3-35-9z"/><path fill="url(#linearGradient1780)" d="M87 25a61 61 0 00-52 94l2 2-6 23 23-6 2 1c9 6 20 9 31 9a61 61 0 000-123z"/><path fill="url(#c)" d="M87 25a61 61 0 00-52 94l2 2-6 23 23-6 2 1c9 6 20 9 31 9a61 61 0 000-123z"/><path fill="#fff" fill-rule="evenodd" d="M69 56l-4-4h-4l-5 3c-1 2-6 6-6 15s6 18 7 19 13 20 32 28c15 6 18 5 22 4 3 0 11-4 12-8 2-5 2-8 1-9l-3-2-13-6c-2-1-3-1-4 1l-6 7h-4c-2-1-8-3-15-9L69 83c-1-2 0-3 1-4l3-3 2-4-1-3-5-13"/></svg>
